# xmcd
#
# Track frame offsets:
#	150
#	19644
#	40817
#	59115
#	79842
#	91465
#	105240
#	127747
#	149735
#	169190
#	190962
#
# Disc length: 2647 seconds
#
# Revision: 1
# Processed by: cddbd v1.4PL0 Copyright (c) Steve Scherf et al.
# Submitted via: audiograbber 1.80.04
#
DISCID=920a550b
DTITLE=Bjørn Berge - Blues hit me
DYEAR=1999
DGENRE=Blues
TTITLE0=Rolling Gambler
TTITLE1=Poor Little Girl
TTITLE2=Blues hit me
TTITLE3=Vigilanti Man
TTITLE4=Beautiful Day
TTITLE5=I Can't get Away
TTITLE6=One of a Kind
TTITLE7=Get on up
TTITLE8=I Believe
TTITLE9=13 Question Method
TTITLE10=The End
EXTD=
EXTT0=
EXTT1=
EXTT2=
EXTT3=
EXTT4=
EXTT5=
EXTT6=
EXTT7=
EXTT8=
EXTT9=
EXTT10=
PLAYORDER=
